<svg version="1.1" viewBox="0.0 0.0 500.0 500.0" fill="none" stroke="none" stroke-linecap="square" stroke-miterlimit="10" xmlns:xlink="http://www.w3.org/1999/xlink" xmlns="http://www.w3.org/2000/svg"><clipPath id="p.0"><path d="m0 0l500.0 0l0 500.0l-500.0 0l0 -500.0z" clip-rule="nonzero"/></clipPath><g clip-path="url(#p.0)"><path fill="#000000" fill-opacity="0.0" d="m0 0l500.0 0l0 500.0l-500.0 0z" fill-rule="evenodd"/><path fill="#0c0c19" d="m0 17.485l0 0c0 -9.6567 7.828301 -17.485 17.485 -17.485l465.03003 0c4.6372986 0 9.084686 1.8421644 12.363739 5.1212378c3.2790833 3.2790737 5.1212463 7.726452 5.1212463 12.363763l0 465.03003c0 9.656677 -7.828308 17.484985 -17.484985 17.484985l-465.03003 0c-9.6567 0 -17.485 -7.828308 -17.485 -17.484985z" fill-rule="evenodd"/><path fill="#000000" fill-opacity="0.0" d="m102.91338 159.51181l294.17322 0l0 180.97638l-294.17322 0z" fill-rule="evenodd"/><path fill="#22fe56" d="m225.13072 278.20312l5.53125 19.796875l19.265625 0l-30.453125 -94.78125l-16.609375 0l-31.046875 94.78125l19.265625 0l5.59375 -19.796875l28.453125 0zm-23.953125 -15.546875l9.953125 -34.90625l9.703125 34.90625l-19.65625 0z" fill-rule="nonzero"/><path fill="#ffffff" d="m328.1875 218.125l0 -14.90625l-76.4375 0l0 14.90625l28.84375 0l0 79.875l18.359375 0l0 -79.875l29.234375 0z" fill-rule="nonzero"/><path fill="#000000" fill-opacity="0.0" d="m52.93176 51.475067l100.188965 0l0 93.732285l-100.188965 0z" fill-rule="evenodd"/><path fill="#efefef" d="m66.463005 129.16756l20.1875 -53.359367l7.546875 0l-20.1875 53.359367l-7.546875 0zm43.546906 -15.390617l-3.921875 -2.703125l5.953125 -9.625l-9.390625 -4.171875l1.40625 -4.359375l9.9375 2.640625l0.734375 -10.921875l4.796875 0l0.734375 10.921875l9.937508 -2.640625l1.40625 4.359375l-9.390633 4.171875l5.9531326 9.625l-3.9218826 2.703125l-7.109375 -8.71875l-7.125 8.71875z" fill-rule="nonzero"/><path fill="#000000" fill-opacity="0.0" d="m361.9449 357.042l100.188965 0l0 93.7323l-100.188965 0z" fill-rule="evenodd"/><path fill="#efefef" d="m382.22614 419.34387l-3.921875 -2.703125l5.953125 -9.625l-9.390625 -4.171875l1.40625 -4.359375l9.9375 2.640625l0.734375 -10.921875l4.796875 0l0.734375 10.921875l9.9375 -2.640625l1.40625 4.359375l-9.390625 4.171875l5.953125 9.625l-3.921875 2.703125l-7.109375 -8.71875l-7.125 8.71875zm30.046906 15.390625l20.1875 -53.359375l7.546875 0l-20.1875 53.359375l-7.546875 0z" fill-rule="nonzero"/></g></svg>